<svg xmlns="http://www.w3.org/2000/svg" viewBox="0 0 32 32" fill="none">
  <defs>
    <linearGradient id="bg" x1="0" y1="0" x2="32" y2="32" gradientUnits="userSpaceOnUse">
      <stop offset="0%" stop-color="#6366f1"/>
      <stop offset="100%" stop-color="#4f46e5"/>
    </linearGradient>
  </defs>

  <!-- Background rounded square -->
  <rect width="32" height="32" rx="7" fill="url(#bg)"/>

  <!-- Letter R -->
  <path d="M6 8h7.2c1.6 0 2.8 0.4 3.6 1.2 0.8 0.8 1.2 1.8 1.2 3 0 1-.25 1.85-.75 2.55-.5.7-1.2 1.2-2.1 1.5L18.8 24H16l-3.4-7.4H8.5V24H6V8zm2.5 6.4h4.5c.9 0 1.55-.2 2-.6.45-.4.65-.95.65-1.65 0-.7-.2-1.25-.65-1.65-.45-.4-1.1-.6-2-.6H8.5v4.5z" fill="white"/>

  <!-- Letter F -->
  <path d="M20 8h9v2.2h-6.5v4.2h5.8v2.2h-5.8V24H20V8z" fill="white"/>
</svg>
